# xmcd
#
# Track frame offsets:
#	150
#	20955
#	38515
#	54587
#	71115
#	85972
#	105257
#	121335
#	142682
#	158245
#
# Disc length: 2326 seconds
#
# Revision: 0
# Processed by: cddbd v1.5.1PL0 Copyright (c) Steve Scherf et al.
# Submitted via: dBpowerAMP V4.0
#
DISCID=7d09140a
DTITLE=Maria Martha Serra Lima - Lo mejor de mi
DYEAR=1900
DGENRE=Latin
TTITLE0=Lo Mejor De Mi
TTITLE1=Me Gustaria
TTITLE2=La Mala De La Novela
TTITLE3=Voy A Ver Si Me Acuerdo
TTITLE4=Si Dios Me Quita La Vida
TTITLE5=Encontrarte Alguna Vez
TTITLE6=Aunque Tenga Que Perder
TTITLE7=A Mi Manera
TTITLE8=Debo Contar Hasta Diez
TTITLE9=Cuando Llegue El Tiempo
EXTD=
EXTT0=
EXTT1=
EXTT2=
EXTT3=
EXTT4=
EXTT5=
EXTT6=
EXTT7=
EXTT8=
EXTT9=
PLAYORDER=
